<mxfile host="app.diagrams.net" modified="2025-09-02T00:00:00Z" agent="cfbfantasy-app" version="24.7.2" type="device"><diagram id="projections" name="Projections"><mxGraphModel dx="1392" dy="850" grid="1" gridSize="10" guides="1" tooltips="1" connect="1" arrows="1" fold="1" page="1" pageScale="1" pageWidth="1920" pageHeight="1080" math="0" shadow="0"><root><mxCell id="0"/><mxCell id="1" parent="0"/><mxCell id="inputs" value="Inputs" style="swimlane;childLayout=stackLayout;fillColor=#E3F2FD;strokeColor=#1D4ED8;fontColor=#1D4ED8;rounded=1;" vertex="1" parent="1"><mxGeometry x="40" y="60" width="260" height="240" as="geometry"/></mxCell><mxCell id="dc" value="Depth Charts" style="rounded=1;fillColor=#FFFFFF;strokeColor=#1D4ED8;" vertex="1" parent="inputs"><mxGeometry x="20" y="40" width="220" height="50" as="geometry"/></mxCell><mxCell id="ratings" value="EA Ratings" style="rounded=1;fillColor=#FFFFFF;strokeColor=#1D4ED8;" vertex="1" parent="inputs"><mxGeometry x="20" y="100" width="220" height="50" as="geometry"/></mxCell><mxCell id="cfbd" value="CFBD / ESPN / RW" style="rounded=1;fillColor=#FFFFFF;strokeColor=#1D4ED8;" vertex="1" parent="inputs"><mxGeometry x="20" y="160" width="220" height="50" as="geometry"/></mxCell><mxCell id="fe" value="Feature Engineering" style="rounded=1;fillColor=#FCE7F3;strokeColor=#DB2777;fontColor=#9D174D;" vertex="1" parent="1"><mxGeometry x="360" y="80" width="260" height="80" as="geometry"/></mxCell><mxCell id="weights" value="Weights (model_versions)" style="rounded=1;fillColor=#F5F3FF;strokeColor=#7C3AED;fontColor=#4C1D95;" vertex="1" parent="1"><mxGeometry x="360" y="180" width="260" height="80" as="geometry"/></mxCell><mxCell id="yearly" value="Yearly Projections" style="rounded=1;fillColor=#CCFBF1;strokeColor=#0D9488;fontColor=#115E59;" vertex="1" parent="1"><mxGeometry x="680" y="80" width="260" height="80" as="geometry"/></mxCell><mxCell id="weekly" value="Weekly Projections" style="rounded=1;fillColor=#FDE68A;strokeColor=#B45309;fontColor=#78350F;" vertex="1" parent="1"><mxGeometry x="680" y="180" width="260" height="80" as="geometry"/></mxCell><mxCell id="persist" value="Persist + Version" style="rounded=1;fillColor=#E0E7FF;strokeColor=#4338CA;fontColor=#1E3A8A;" vertex="1" parent="1"><mxGeometry x="1000" y="130" width="260" height="80" as="geometry"/></mxCell><mxCell id="edge1" style="endArrow=block;endFill=1;strokeColor=#94A3B8;" edge="1" source="dc" target="fe" parent="1"><mxGeometry relative="1" as="geometry"/></mxCell><mxCell id="edge2" style="endArrow=block;endFill=1;strokeColor=#94A3B8;" edge="1" source="ratings" target="fe" parent="1"><mxGeometry relative="1" as="geometry"/></mxCell><mxCell id="edge3" style="endArrow=block;endFill=1;strokeColor=#94A3B8;" edge="1" source="cfbd" target="fe" parent="1"><mxGeometry relative="1" as="geometry"/></mxCell><mxCell id="edge4" style="endArrow=block;endFill=1;strokeColor=#94A3B8;" edge="1" source="fe" target="yearly" parent="1"><mxGeometry relative="1" as="geometry"/></mxCell><mxCell id="edge5" style="endArrow=block;endFill=1;strokeColor=#94A3B8;" edge="1" source="fe" target="weekly" parent="1"><mxGeometry relative="1" as="geometry"/></mxCell><mxCell id="edge6" style="endArrow=block;endFill=1;strokeColor=#94A3B8;" edge="1" source="weights" target="yearly" parent="1"><mxGeometry relative="1" as="geometry"/></mxCell><mxCell id="edge7" style="endArrow=block;endFill=1;strokeColor=#94A3B8;" edge="1" source="weights" target="weekly" parent="1"><mxGeometry relative="1" as="geometry"/></mxCell><mxCell id="edge8" style="endArrow=block;endFill=1;strokeColor=#94A3B8;" edge="1" source="yearly" target="persist" parent="1"><mxGeometry relative="1" as="geometry"/></mxCell><mxCell id="edge9" style="endArrow=block;endFill=1;strokeColor=#94A3B8;" edge="1" source="weekly" target="persist" parent="1"><mxGeometry relative="1" as="geometry"/></mxCell></root></mxGraphModel></diagram></mxfile>